<mxfile host="app.diagrams.net" modified="2021-02-13T13:54:06.603Z" agent="5.0 (Windows NT 10.0; Win64; x64) AppleWebKit/537.36 (KHTML, like Gecko) Chrome/88.0.4324.150 Safari/537.36 Edg/88.0.705.68" etag="v0zZl9KkaIW-vizbM5qp" version="14.3.1" type="github">
  <diagram id="H5IA_fxO9X-dKAMKV9YF" name="Page-1">
    <mxGraphModel dx="1038" dy="548" grid="1" gridSize="10" guides="1" tooltips="1" connect="1" arrows="1" fold="1" page="1" pageScale="1" pageWidth="827" pageHeight="1169" math="0" shadow="0">
      <root>
        <mxCell id="0" />
        <mxCell id="1" parent="0" />
        <mxCell id="coR2YGzdEhiw7b8zGxlB-58" style="edgeStyle=orthogonalEdgeStyle;rounded=0;orthogonalLoop=1;jettySize=auto;html=1;exitX=0;exitY=0.5;exitDx=0;exitDy=0;exitPerimeter=0;entryX=0;entryY=0.5;entryDx=0;entryDy=0;entryPerimeter=0;" parent="1" target="coR2YGzdEhiw7b8zGxlB-56" edge="1">
          <mxGeometry relative="1" as="geometry">
            <Array as="points">
              <mxPoint x="50" y="1013" />
              <mxPoint x="50" y="763" />
            </Array>
            <mxPoint x="177.44000000000005" y="1012.5" as="sourcePoint" />
          </mxGeometry>
        </mxCell>
        <mxCell id="coR2YGzdEhiw7b8zGxlB-81" style="edgeStyle=orthogonalEdgeStyle;rounded=0;orthogonalLoop=1;jettySize=auto;html=1;exitX=0.5;exitY=1;exitDx=0;exitDy=0;entryX=1;entryY=0.5;entryDx=0;entryDy=0;entryPerimeter=0;" parent="1" source="coR2YGzdEhiw7b8zGxlB-71" edge="1">
          <mxGeometry relative="1" as="geometry">
            <Array as="points">
              <mxPoint x="734" y="450" />
              <mxPoint x="800" y="450" />
              <mxPoint x="800" y="130" />
            </Array>
            <mxPoint x="640" y="129.5" as="targetPoint" />
          </mxGeometry>
        </mxCell>
        <mxCell id="O3C06PD_wvDqqxQJmVaV-1" style="edgeStyle=orthogonalEdgeStyle;rounded=0;orthogonalLoop=1;jettySize=auto;html=1;exitX=0.5;exitY=1;exitDx=0;exitDy=0;entryX=0.5;entryY=0;entryDx=0;entryDy=0;entryPerimeter=0;" edge="1" parent="1" source="O3C06PD_wvDqqxQJmVaV-2" target="O3C06PD_wvDqqxQJmVaV-35">
          <mxGeometry relative="1" as="geometry" />
        </mxCell>
        <mxCell id="O3C06PD_wvDqqxQJmVaV-2" value="" style="ellipse;fillColor=#000000;strokeColor=none;" vertex="1" parent="1">
          <mxGeometry x="184.94" y="40" width="25" height="25" as="geometry" />
        </mxCell>
        <mxCell id="O3C06PD_wvDqqxQJmVaV-3" value="" style="ellipse;html=1;shape=endState;fillColor=#000000;strokeColor=#000000;" vertex="1" parent="1">
          <mxGeometry x="187.48999999999998" y="898" width="25" height="25" as="geometry" />
        </mxCell>
        <mxCell id="O3C06PD_wvDqqxQJmVaV-4" value="&lt;font style=&quot;font-size: 11px&quot;&gt;Wait 5 min&lt;/font&gt;" style="text;html=1;align=center;verticalAlign=middle;resizable=0;points=[];autosize=1;" vertex="1" parent="1">
          <mxGeometry x="316.25" y="355" width="70" height="20" as="geometry" />
        </mxCell>
        <mxCell id="O3C06PD_wvDqqxQJmVaV-5" value="" style="line;strokeWidth=2;fillColor=none;align=left;verticalAlign=middle;spacingTop=-1;spacingLeft=3;spacingRight=3;rotatable=0;labelPosition=right;points=[];portConstraint=eastwest;" vertex="1" parent="1">
          <mxGeometry x="59.989999999999995" y="708" width="280" height="8" as="geometry" />
        </mxCell>
        <mxCell id="O3C06PD_wvDqqxQJmVaV-6" value="&lt;span style=&quot;font-size: 10px&quot;&gt;Insert rating&lt;/span&gt;" style="rounded=1;whiteSpace=wrap;html=1;strokeWidth=1;" vertex="1" parent="1">
          <mxGeometry x="59.989999999999995" y="739.5" width="62.5" height="30" as="geometry" />
        </mxCell>
        <mxCell id="O3C06PD_wvDqqxQJmVaV-7" value="&lt;span style=&quot;font-size: 10px&quot;&gt;Select Tag&lt;/span&gt;" style="rounded=1;whiteSpace=wrap;html=1;strokeWidth=1;" vertex="1" parent="1">
          <mxGeometry x="277.49" y="739.5" width="62.5" height="30" as="geometry" />
        </mxCell>
        <mxCell id="O3C06PD_wvDqqxQJmVaV-8" value="" style="line;strokeWidth=2;fillColor=none;align=left;verticalAlign=middle;spacingTop=-1;spacingLeft=3;spacingRight=3;rotatable=0;labelPosition=right;points=[];portConstraint=eastwest;" vertex="1" parent="1">
          <mxGeometry x="59.989999999999995" y="789.5" width="280" height="8" as="geometry" />
        </mxCell>
        <mxCell id="O3C06PD_wvDqqxQJmVaV-9" style="edgeStyle=orthogonalEdgeStyle;rounded=0;orthogonalLoop=1;jettySize=auto;html=1;entryX=0.5;entryY=0;entryDx=0;entryDy=0;" edge="1" parent="1" source="O3C06PD_wvDqqxQJmVaV-10" target="O3C06PD_wvDqqxQJmVaV-3">
          <mxGeometry relative="1" as="geometry">
            <mxPoint x="199.98999999999998" y="888" as="targetPoint" />
          </mxGeometry>
        </mxCell>
        <mxCell id="O3C06PD_wvDqqxQJmVaV-10" value="&lt;span style=&quot;font-size: 10px&quot;&gt;Post Review&lt;/span&gt;" style="rounded=1;whiteSpace=wrap;html=1;strokeWidth=1;" vertex="1" parent="1">
          <mxGeometry x="153.73999999999998" y="828" width="92.5" height="30" as="geometry" />
        </mxCell>
        <mxCell id="O3C06PD_wvDqqxQJmVaV-11" style="edgeStyle=orthogonalEdgeStyle;rounded=0;orthogonalLoop=1;jettySize=auto;html=1;entryX=0.5;entryY=0;entryDx=0;entryDy=0;entryPerimeter=0;" edge="1" parent="1" source="O3C06PD_wvDqqxQJmVaV-12" target="O3C06PD_wvDqqxQJmVaV-14">
          <mxGeometry relative="1" as="geometry" />
        </mxCell>
        <mxCell id="O3C06PD_wvDqqxQJmVaV-12" value="" style="ellipse;fillColor=#000000;strokeColor=none;" vertex="1" parent="1">
          <mxGeometry x="607.5" y="62" width="25" height="25" as="geometry" />
        </mxCell>
        <mxCell id="O3C06PD_wvDqqxQJmVaV-13" style="edgeStyle=orthogonalEdgeStyle;rounded=0;orthogonalLoop=1;jettySize=auto;html=1;" edge="1" parent="1" source="O3C06PD_wvDqqxQJmVaV-14" target="O3C06PD_wvDqqxQJmVaV-16">
          <mxGeometry relative="1" as="geometry" />
        </mxCell>
        <mxCell id="O3C06PD_wvDqqxQJmVaV-14" value="" style="strokeWidth=1;html=1;shape=mxgraph.flowchart.decision;whiteSpace=wrap;fillColor=#ffffff;" vertex="1" parent="1">
          <mxGeometry x="600" y="117" width="40" height="25" as="geometry" />
        </mxCell>
        <mxCell id="O3C06PD_wvDqqxQJmVaV-15" style="edgeStyle=orthogonalEdgeStyle;rounded=0;orthogonalLoop=1;jettySize=auto;html=1;entryX=0.5;entryY=0;entryDx=0;entryDy=0;" edge="1" parent="1" source="O3C06PD_wvDqqxQJmVaV-16" target="O3C06PD_wvDqqxQJmVaV-20">
          <mxGeometry relative="1" as="geometry" />
        </mxCell>
        <mxCell id="O3C06PD_wvDqqxQJmVaV-16" value="&lt;span style=&quot;font-size: 10px&quot;&gt;Enter Username and Password&lt;/span&gt;" style="rounded=1;whiteSpace=wrap;html=1;strokeWidth=1;" vertex="1" parent="1">
          <mxGeometry x="573.75" y="172" width="92.5" height="30" as="geometry" />
        </mxCell>
        <mxCell id="O3C06PD_wvDqqxQJmVaV-17" value="Review Host" style="text;html=1;align=center;verticalAlign=middle;resizable=0;points=[];autosize=1;" vertex="1" parent="1">
          <mxGeometry x="157.44" y="20" width="80" height="20" as="geometry" />
        </mxCell>
        <mxCell id="O3C06PD_wvDqqxQJmVaV-18" value="Login" style="text;html=1;align=center;verticalAlign=middle;resizable=0;points=[];autosize=1;" vertex="1" parent="1">
          <mxGeometry x="600" y="40" width="40" height="20" as="geometry" />
        </mxCell>
        <mxCell id="O3C06PD_wvDqqxQJmVaV-19" style="edgeStyle=orthogonalEdgeStyle;rounded=0;orthogonalLoop=1;jettySize=auto;html=1;entryX=0.5;entryY=0;entryDx=0;entryDy=0;entryPerimeter=0;" edge="1" parent="1" source="O3C06PD_wvDqqxQJmVaV-20" target="O3C06PD_wvDqqxQJmVaV-23">
          <mxGeometry relative="1" as="geometry" />
        </mxCell>
        <mxCell id="O3C06PD_wvDqqxQJmVaV-20" value="&lt;span style=&quot;font-size: 10px&quot;&gt;Verify Username and Password&lt;/span&gt;" style="rounded=1;whiteSpace=wrap;html=1;strokeWidth=1;" vertex="1" parent="1">
          <mxGeometry x="573.75" y="232" width="92.5" height="30" as="geometry" />
        </mxCell>
        <mxCell id="O3C06PD_wvDqqxQJmVaV-21" style="edgeStyle=orthogonalEdgeStyle;rounded=0;orthogonalLoop=1;jettySize=auto;html=1;entryX=0.5;entryY=0;entryDx=0;entryDy=0;" edge="1" parent="1" source="O3C06PD_wvDqqxQJmVaV-23" target="O3C06PD_wvDqqxQJmVaV-25">
          <mxGeometry relative="1" as="geometry" />
        </mxCell>
        <mxCell id="O3C06PD_wvDqqxQJmVaV-22" style="edgeStyle=orthogonalEdgeStyle;rounded=0;orthogonalLoop=1;jettySize=auto;html=1;" edge="1" parent="1" source="O3C06PD_wvDqqxQJmVaV-23" target="O3C06PD_wvDqqxQJmVaV-27">
          <mxGeometry relative="1" as="geometry" />
        </mxCell>
        <mxCell id="O3C06PD_wvDqqxQJmVaV-23" value="" style="strokeWidth=1;html=1;shape=mxgraph.flowchart.decision;whiteSpace=wrap;fillColor=#ffffff;" vertex="1" parent="1">
          <mxGeometry x="600" y="292" width="40" height="25" as="geometry" />
        </mxCell>
        <mxCell id="O3C06PD_wvDqqxQJmVaV-24" style="edgeStyle=orthogonalEdgeStyle;rounded=0;orthogonalLoop=1;jettySize=auto;html=1;entryX=0.5;entryY=0;entryDx=0;entryDy=0;" edge="1" parent="1" source="O3C06PD_wvDqqxQJmVaV-25" target="O3C06PD_wvDqqxQJmVaV-29">
          <mxGeometry relative="1" as="geometry" />
        </mxCell>
        <mxCell id="O3C06PD_wvDqqxQJmVaV-25" value="&lt;span style=&quot;font-size: 10px&quot;&gt;Reject Login&lt;/span&gt;" style="rounded=1;whiteSpace=wrap;html=1;strokeWidth=1;" vertex="1" parent="1">
          <mxGeometry x="687.5" y="340" width="92.5" height="30" as="geometry" />
        </mxCell>
        <mxCell id="O3C06PD_wvDqqxQJmVaV-26" style="edgeStyle=orthogonalEdgeStyle;rounded=0;orthogonalLoop=1;jettySize=auto;html=1;entryX=0.5;entryY=0;entryDx=0;entryDy=0;exitX=0.5;exitY=1;exitDx=0;exitDy=0;" edge="1" parent="1" source="O3C06PD_wvDqqxQJmVaV-27" target="O3C06PD_wvDqqxQJmVaV-30">
          <mxGeometry relative="1" as="geometry" />
        </mxCell>
        <mxCell id="O3C06PD_wvDqqxQJmVaV-27" value="&lt;span style=&quot;font-size: 10px&quot;&gt;Display Account Info&lt;/span&gt;" style="rounded=1;whiteSpace=wrap;html=1;strokeWidth=1;" vertex="1" parent="1">
          <mxGeometry x="470" y="340" width="92.5" height="30" as="geometry" />
        </mxCell>
        <mxCell id="O3C06PD_wvDqqxQJmVaV-28" style="edgeStyle=orthogonalEdgeStyle;rounded=0;orthogonalLoop=1;jettySize=auto;html=1;exitX=0.5;exitY=1;exitDx=0;exitDy=0;entryX=1;entryY=0.5;entryDx=0;entryDy=0;entryPerimeter=0;" edge="1" parent="1" source="O3C06PD_wvDqqxQJmVaV-29" target="O3C06PD_wvDqqxQJmVaV-14">
          <mxGeometry relative="1" as="geometry">
            <Array as="points">
              <mxPoint x="734" y="450" />
              <mxPoint x="800" y="450" />
              <mxPoint x="800" y="130" />
            </Array>
          </mxGeometry>
        </mxCell>
        <mxCell id="O3C06PD_wvDqqxQJmVaV-29" value="&lt;span style=&quot;font-size: 10px&quot;&gt;Display Error Message&lt;/span&gt;" style="rounded=1;whiteSpace=wrap;html=1;strokeWidth=1;" vertex="1" parent="1">
          <mxGeometry x="687.5" y="400" width="92.5" height="30" as="geometry" />
        </mxCell>
        <mxCell id="O3C06PD_wvDqqxQJmVaV-30" value="" style="ellipse;html=1;shape=endState;fillColor=#000000;strokeColor=#000000;" vertex="1" parent="1">
          <mxGeometry x="607.5" y="472" width="25" height="25" as="geometry" />
        </mxCell>
        <mxCell id="O3C06PD_wvDqqxQJmVaV-31" value="&lt;font style=&quot;font-size: 11px&quot;&gt;Not valid&lt;/font&gt;" style="text;html=1;align=center;verticalAlign=middle;resizable=0;points=[];autosize=1;" vertex="1" parent="1">
          <mxGeometry x="655" y="287" width="60" height="20" as="geometry" />
        </mxCell>
        <mxCell id="O3C06PD_wvDqqxQJmVaV-32" value="&lt;font style=&quot;font-size: 11px&quot;&gt;Valid&lt;/font&gt;" style="text;html=1;align=center;verticalAlign=middle;resizable=0;points=[];autosize=1;" vertex="1" parent="1">
          <mxGeometry x="540" y="287" width="40" height="20" as="geometry" />
        </mxCell>
        <mxCell id="O3C06PD_wvDqqxQJmVaV-33" style="edgeStyle=orthogonalEdgeStyle;rounded=0;orthogonalLoop=1;jettySize=auto;html=1;exitX=1;exitY=0.5;exitDx=0;exitDy=0;exitPerimeter=0;entryX=0.5;entryY=0;entryDx=0;entryDy=0;" edge="1" parent="1" source="O3C06PD_wvDqqxQJmVaV-35" target="O3C06PD_wvDqqxQJmVaV-39">
          <mxGeometry relative="1" as="geometry">
            <mxPoint x="330.0000000000001" y="120" as="targetPoint" />
          </mxGeometry>
        </mxCell>
        <mxCell id="O3C06PD_wvDqqxQJmVaV-34" style="edgeStyle=orthogonalEdgeStyle;rounded=0;orthogonalLoop=1;jettySize=auto;html=1;entryX=0;entryY=0.5;entryDx=0;entryDy=0;entryPerimeter=0;" edge="1" parent="1" source="O3C06PD_wvDqqxQJmVaV-35" target="O3C06PD_wvDqqxQJmVaV-37">
          <mxGeometry relative="1" as="geometry">
            <Array as="points">
              <mxPoint x="80" y="105" />
              <mxPoint x="80" y="203" />
            </Array>
          </mxGeometry>
        </mxCell>
        <mxCell id="O3C06PD_wvDqqxQJmVaV-35" value="" style="strokeWidth=1;html=1;shape=mxgraph.flowchart.decision;whiteSpace=wrap;fillColor=#ffffff;" vertex="1" parent="1">
          <mxGeometry x="177.44" y="92" width="40" height="25" as="geometry" />
        </mxCell>
        <mxCell id="O3C06PD_wvDqqxQJmVaV-36" style="edgeStyle=orthogonalEdgeStyle;rounded=0;orthogonalLoop=1;jettySize=auto;html=1;exitX=0.5;exitY=1;exitDx=0;exitDy=0;exitPerimeter=0;entryX=0.5;entryY=0;entryDx=0;entryDy=0;entryPerimeter=0;" edge="1" parent="1" source="O3C06PD_wvDqqxQJmVaV-37" target="O3C06PD_wvDqqxQJmVaV-52">
          <mxGeometry relative="1" as="geometry">
            <mxPoint x="197" y="240" as="targetPoint" />
          </mxGeometry>
        </mxCell>
        <mxCell id="O3C06PD_wvDqqxQJmVaV-37" value="" style="strokeWidth=1;html=1;shape=mxgraph.flowchart.decision;whiteSpace=wrap;fillColor=#ffffff;" vertex="1" parent="1">
          <mxGeometry x="177.44" y="190" width="40" height="25" as="geometry" />
        </mxCell>
        <mxCell id="O3C06PD_wvDqqxQJmVaV-38" style="edgeStyle=orthogonalEdgeStyle;rounded=0;orthogonalLoop=1;jettySize=auto;html=1;exitX=0.5;exitY=1;exitDx=0;exitDy=0;entryX=1;entryY=0.5;entryDx=0;entryDy=0;entryPerimeter=0;" edge="1" parent="1" source="O3C06PD_wvDqqxQJmVaV-39" target="O3C06PD_wvDqqxQJmVaV-37">
          <mxGeometry relative="1" as="geometry" />
        </mxCell>
        <mxCell id="O3C06PD_wvDqqxQJmVaV-39" value="&lt;font style=&quot;font-size: 10px&quot;&gt;Login *&lt;/font&gt;" style="rounded=1;whiteSpace=wrap;html=1;strokeWidth=1;" vertex="1" parent="1">
          <mxGeometry x="269.94" y="142" width="92.5" height="30" as="geometry" />
        </mxCell>
        <mxCell id="O3C06PD_wvDqqxQJmVaV-40" value="&lt;font style=&quot;font-size: 10px&quot;&gt;User is logged&lt;/font&gt;" style="text;html=1;align=center;verticalAlign=middle;resizable=0;points=[];autosize=1;" vertex="1" parent="1">
          <mxGeometry x="84.94" y="86" width="80" height="20" as="geometry" />
        </mxCell>
        <mxCell id="O3C06PD_wvDqqxQJmVaV-41" value="&lt;span style=&quot;color: rgb(0 , 0 , 0) ; font-family: &amp;#34;helvetica&amp;#34; ; font-size: 10px ; font-style: normal ; font-weight: 400 ; letter-spacing: normal ; text-align: center ; text-indent: 0px ; text-transform: none ; word-spacing: 0px ; background-color: rgb(248 , 249 , 250) ; display: inline ; float: none&quot;&gt;User is not logged&lt;/span&gt;" style="text;whiteSpace=wrap;html=1;" vertex="1" parent="1">
          <mxGeometry x="226.25" y="84" width="90" height="30" as="geometry" />
        </mxCell>
        <mxCell id="O3C06PD_wvDqqxQJmVaV-42" style="edgeStyle=orthogonalEdgeStyle;rounded=0;orthogonalLoop=1;jettySize=auto;html=1;entryX=0.5;entryY=0;entryDx=0;entryDy=0;" edge="1" parent="1" source="O3C06PD_wvDqqxQJmVaV-43" target="O3C06PD_wvDqqxQJmVaV-58">
          <mxGeometry relative="1" as="geometry">
            <mxPoint x="199.99" y="535" as="targetPoint" />
          </mxGeometry>
        </mxCell>
        <mxCell id="O3C06PD_wvDqqxQJmVaV-43" value="&lt;span style=&quot;font-size: 10px&quot;&gt;Select Past Reservations&lt;/span&gt;" style="rounded=1;whiteSpace=wrap;html=1;strokeWidth=1;" vertex="1" parent="1">
          <mxGeometry x="153.75" y="484" width="92.5" height="30" as="geometry" />
        </mxCell>
        <mxCell id="O3C06PD_wvDqqxQJmVaV-44" style="edgeStyle=orthogonalEdgeStyle;rounded=0;orthogonalLoop=1;jettySize=auto;html=1;entryX=0.5;entryY=0;entryDx=0;entryDy=0;" edge="1" parent="1" source="O3C06PD_wvDqqxQJmVaV-45" target="O3C06PD_wvDqqxQJmVaV-43">
          <mxGeometry relative="1" as="geometry">
            <mxPoint x="199.99" y="472" as="targetPoint" />
            <Array as="points">
              <mxPoint x="199.99" y="480" />
              <mxPoint x="199.99" y="480" />
            </Array>
          </mxGeometry>
        </mxCell>
        <mxCell id="O3C06PD_wvDqqxQJmVaV-45" value="&lt;span style=&quot;font-size: 10px&quot;&gt;Open My Reservations&lt;/span&gt;" style="rounded=1;whiteSpace=wrap;html=1;strokeWidth=1;" vertex="1" parent="1">
          <mxGeometry x="153.75" y="430" width="92.5" height="33" as="geometry" />
        </mxCell>
        <mxCell id="O3C06PD_wvDqqxQJmVaV-46" style="edgeStyle=orthogonalEdgeStyle;rounded=0;orthogonalLoop=1;jettySize=auto;html=1;exitX=0;exitY=0.5;exitDx=0;exitDy=0;exitPerimeter=0;entryX=0.5;entryY=0;entryDx=0;entryDy=0;" edge="1" parent="1" source="O3C06PD_wvDqqxQJmVaV-48">
          <mxGeometry relative="1" as="geometry">
            <mxPoint x="200" y="430" as="targetPoint" />
            <Array as="points">
              <mxPoint x="150" y="320" />
              <mxPoint x="82" y="320" />
              <mxPoint x="82" y="400" />
              <mxPoint x="200" y="400" />
            </Array>
            <mxPoint x="170" y="340" as="sourcePoint" />
          </mxGeometry>
        </mxCell>
        <mxCell id="O3C06PD_wvDqqxQJmVaV-47" style="edgeStyle=orthogonalEdgeStyle;rounded=0;orthogonalLoop=1;jettySize=auto;html=1;exitX=1;exitY=0.5;exitDx=0;exitDy=0;exitPerimeter=0;entryX=0.5;entryY=0;entryDx=0;entryDy=0;entryPerimeter=0;" edge="1" parent="1" source="O3C06PD_wvDqqxQJmVaV-48" target="O3C06PD_wvDqqxQJmVaV-54">
          <mxGeometry relative="1" as="geometry">
            <mxPoint x="318" y="350" as="targetPoint" />
          </mxGeometry>
        </mxCell>
        <mxCell id="O3C06PD_wvDqqxQJmVaV-48" value="" style="strokeWidth=1;html=1;shape=mxgraph.flowchart.decision;whiteSpace=wrap;fillColor=#ffffff;" vertex="1" parent="1">
          <mxGeometry x="177.44" y="307" width="40" height="25" as="geometry" />
        </mxCell>
        <mxCell id="O3C06PD_wvDqqxQJmVaV-49" value="&lt;font style=&quot;font-size: 11px&quot;&gt;Visit non ended&lt;/font&gt;" style="text;html=1;align=center;verticalAlign=middle;resizable=0;points=[];autosize=1;" vertex="1" parent="1">
          <mxGeometry x="226.25" y="297" width="90" height="20" as="geometry" />
        </mxCell>
        <mxCell id="O3C06PD_wvDqqxQJmVaV-50" value="&lt;font style=&quot;font-size: 11px&quot;&gt;Visit ended&lt;/font&gt;" style="text;html=1;align=center;verticalAlign=middle;resizable=0;points=[];autosize=1;" vertex="1" parent="1">
          <mxGeometry x="94.88" y="297" width="70" height="20" as="geometry" />
        </mxCell>
        <mxCell id="O3C06PD_wvDqqxQJmVaV-51" style="edgeStyle=orthogonalEdgeStyle;rounded=0;orthogonalLoop=1;jettySize=auto;html=1;entryX=0.5;entryY=0;entryDx=0;entryDy=0;entryPerimeter=0;exitX=0.5;exitY=1;exitDx=0;exitDy=0;exitPerimeter=0;" edge="1" parent="1" source="O3C06PD_wvDqqxQJmVaV-52" target="O3C06PD_wvDqqxQJmVaV-48">
          <mxGeometry relative="1" as="geometry">
            <mxPoint x="197" y="280" as="sourcePoint" />
          </mxGeometry>
        </mxCell>
        <mxCell id="O3C06PD_wvDqqxQJmVaV-52" value="" style="strokeWidth=1;html=1;shape=mxgraph.flowchart.decision;whiteSpace=wrap;fillColor=#ffffff;" vertex="1" parent="1">
          <mxGeometry x="177.44" y="250" width="40" height="25" as="geometry" />
        </mxCell>
        <mxCell id="O3C06PD_wvDqqxQJmVaV-53" style="edgeStyle=orthogonalEdgeStyle;rounded=0;orthogonalLoop=1;jettySize=auto;html=1;exitX=0.5;exitY=1;exitDx=0;exitDy=0;exitPerimeter=0;entryX=1;entryY=0.5;entryDx=0;entryDy=0;entryPerimeter=0;" edge="1" parent="1" source="O3C06PD_wvDqqxQJmVaV-54" target="O3C06PD_wvDqqxQJmVaV-52">
          <mxGeometry relative="1" as="geometry">
            <Array as="points">
              <mxPoint x="318" y="395" />
              <mxPoint x="390" y="395" />
              <mxPoint x="390" y="263" />
            </Array>
          </mxGeometry>
        </mxCell>
        <mxCell id="O3C06PD_wvDqqxQJmVaV-54" value="" style="verticalLabelPosition=bottom;verticalAlign=top;html=1;shape=mxgraph.flowchart.collate;strokeWidth=1;fillColor=#ffffff;" vertex="1" parent="1">
          <mxGeometry x="305.13" y="350" width="25" height="25" as="geometry" />
        </mxCell>
        <mxCell id="O3C06PD_wvDqqxQJmVaV-55" style="edgeStyle=orthogonalEdgeStyle;rounded=0;orthogonalLoop=1;jettySize=auto;html=1;" edge="1" parent="1" source="O3C06PD_wvDqqxQJmVaV-56">
          <mxGeometry relative="1" as="geometry">
            <mxPoint x="200" y="650" as="targetPoint" />
          </mxGeometry>
        </mxCell>
        <mxCell id="O3C06PD_wvDqqxQJmVaV-56" value="&lt;span style=&quot;font-size: 10px&quot;&gt;Click on Host name&amp;nbsp;&lt;/span&gt;" style="rounded=1;whiteSpace=wrap;html=1;strokeWidth=1;" vertex="1" parent="1">
          <mxGeometry x="153.76" y="585" width="92.5" height="30" as="geometry" />
        </mxCell>
        <mxCell id="O3C06PD_wvDqqxQJmVaV-57" style="edgeStyle=orthogonalEdgeStyle;rounded=0;orthogonalLoop=1;jettySize=auto;html=1;entryX=0.5;entryY=0;entryDx=0;entryDy=0;" edge="1" parent="1" source="O3C06PD_wvDqqxQJmVaV-58">
          <mxGeometry relative="1" as="geometry">
            <mxPoint x="200" y="586" as="targetPoint" />
          </mxGeometry>
        </mxCell>
        <mxCell id="O3C06PD_wvDqqxQJmVaV-58" value="&lt;span style=&quot;font-size: 10px&quot;&gt;Display list of past reservations&amp;nbsp;&amp;nbsp;&lt;/span&gt;" style="rounded=1;whiteSpace=wrap;html=1;strokeWidth=1;" vertex="1" parent="1">
          <mxGeometry x="153.74" y="535" width="92.5" height="30" as="geometry" />
        </mxCell>
        <mxCell id="O3C06PD_wvDqqxQJmVaV-59" style="edgeStyle=orthogonalEdgeStyle;rounded=0;orthogonalLoop=1;jettySize=auto;html=1;entryX=0.499;entryY=0.485;entryDx=0;entryDy=0;entryPerimeter=0;" edge="1" parent="1" source="O3C06PD_wvDqqxQJmVaV-60" target="O3C06PD_wvDqqxQJmVaV-5">
          <mxGeometry relative="1" as="geometry">
            <Array as="points">
              <mxPoint x="199.98" y="712" />
            </Array>
          </mxGeometry>
        </mxCell>
        <mxCell id="O3C06PD_wvDqqxQJmVaV-60" value="&lt;span style=&quot;font-size: 10px&quot;&gt;Click on Make Review&lt;/span&gt;" style="rounded=1;whiteSpace=wrap;html=1;strokeWidth=1;" vertex="1" parent="1">
          <mxGeometry x="153.73" y="650" width="92.5" height="30" as="geometry" />
        </mxCell>
        <mxCell id="O3C06PD_wvDqqxQJmVaV-61" value="&lt;span style=&quot;font-size: 10px&quot;&gt;Insert Title&lt;/span&gt;" style="rounded=1;whiteSpace=wrap;html=1;strokeWidth=1;" vertex="1" parent="1">
          <mxGeometry x="132.48999999999987" y="739.5" width="62.5" height="30" as="geometry" />
        </mxCell>
        <mxCell id="O3C06PD_wvDqqxQJmVaV-62" value="&lt;span style=&quot;font-size: 10px&quot;&gt;Write description&lt;/span&gt;" style="rounded=1;whiteSpace=wrap;html=1;strokeWidth=1;" vertex="1" parent="1">
          <mxGeometry x="204.98999999999998" y="739.5" width="62.5" height="30" as="geometry" />
        </mxCell>
        <mxCell id="O3C06PD_wvDqqxQJmVaV-63" value="" style="endArrow=classic;html=1;entryX=0.5;entryY=0;entryDx=0;entryDy=0;" edge="1" parent="1" target="O3C06PD_wvDqqxQJmVaV-6">
          <mxGeometry width="50" height="50" relative="1" as="geometry">
            <mxPoint x="90.99000000000001" y="712.5" as="sourcePoint" />
            <mxPoint x="139.98999999999998" y="709.5" as="targetPoint" />
          </mxGeometry>
        </mxCell>
        <mxCell id="O3C06PD_wvDqqxQJmVaV-64" value="" style="endArrow=classic;html=1;entryX=0.5;entryY=0;entryDx=0;entryDy=0;exitX=0.37;exitY=0.446;exitDx=0;exitDy=0;exitPerimeter=0;" edge="1" parent="1" source="O3C06PD_wvDqqxQJmVaV-5">
          <mxGeometry width="50" height="50" relative="1" as="geometry">
            <mxPoint x="163.98999999999998" y="713.5" as="sourcePoint" />
            <mxPoint x="163.8599999999999" y="739.5" as="targetPoint" />
          </mxGeometry>
        </mxCell>
        <mxCell id="O3C06PD_wvDqqxQJmVaV-65" value="" style="endArrow=classic;html=1;entryX=0.5;entryY=0;entryDx=0;entryDy=0;exitX=0.624;exitY=0.609;exitDx=0;exitDy=0;exitPerimeter=0;" edge="1" parent="1" source="O3C06PD_wvDqqxQJmVaV-5">
          <mxGeometry width="50" height="50" relative="1" as="geometry">
            <mxPoint x="234.98999999999998" y="719.5" as="sourcePoint" />
            <mxPoint x="234.99000000000024" y="739.5" as="targetPoint" />
          </mxGeometry>
        </mxCell>
        <mxCell id="O3C06PD_wvDqqxQJmVaV-66" value="" style="endArrow=classic;html=1;entryX=0.5;entryY=0;entryDx=0;entryDy=0;" edge="1" parent="1">
          <mxGeometry width="50" height="50" relative="1" as="geometry">
            <mxPoint x="308.6100000000001" y="712.5" as="sourcePoint" />
            <mxPoint x="308.86000000000035" y="739.5" as="targetPoint" />
          </mxGeometry>
        </mxCell>
        <mxCell id="O3C06PD_wvDqqxQJmVaV-67" value="" style="endArrow=classic;html=1;entryX=0.37;entryY=0.422;entryDx=0;entryDy=0;entryPerimeter=0;" edge="1" parent="1" target="O3C06PD_wvDqqxQJmVaV-8">
          <mxGeometry width="50" height="50" relative="1" as="geometry">
            <mxPoint x="163.6099999999999" y="769.5" as="sourcePoint" />
            <mxPoint x="163.98999999999998" y="789.5" as="targetPoint" />
          </mxGeometry>
        </mxCell>
        <mxCell id="O3C06PD_wvDqqxQJmVaV-68" value="" style="endArrow=classic;html=1;entryX=0.111;entryY=0.491;entryDx=0;entryDy=0;entryPerimeter=0;" edge="1" parent="1" target="O3C06PD_wvDqqxQJmVaV-8">
          <mxGeometry width="50" height="50" relative="1" as="geometry">
            <mxPoint x="91.11000000000013" y="769.5" as="sourcePoint" />
            <mxPoint x="90.99000000000001" y="789.5" as="targetPoint" />
          </mxGeometry>
        </mxCell>
        <mxCell id="O3C06PD_wvDqqxQJmVaV-69" value="" style="endArrow=classic;html=1;entryX=0.625;entryY=0.375;entryDx=0;entryDy=0;entryPerimeter=0;" edge="1" parent="1" target="O3C06PD_wvDqqxQJmVaV-8">
          <mxGeometry width="50" height="50" relative="1" as="geometry">
            <mxPoint x="234.99000000000024" y="769.5" as="sourcePoint" />
            <mxPoint x="234.98999999999998" y="789.5" as="targetPoint" />
          </mxGeometry>
        </mxCell>
        <mxCell id="O3C06PD_wvDqqxQJmVaV-70" value="" style="endArrow=classic;html=1;entryX=0.888;entryY=0.422;entryDx=0;entryDy=0;entryPerimeter=0;" edge="1" parent="1" target="O3C06PD_wvDqqxQJmVaV-8">
          <mxGeometry width="50" height="50" relative="1" as="geometry">
            <mxPoint x="308.6100000000001" y="769.5" as="sourcePoint" />
            <mxPoint x="308.99" y="789.5" as="targetPoint" />
          </mxGeometry>
        </mxCell>
        <mxCell id="O3C06PD_wvDqqxQJmVaV-71" value="" style="endArrow=classic;html=1;entryX=0.5;entryY=0;entryDx=0;entryDy=0;exitX=0.499;exitY=0.538;exitDx=0;exitDy=0;exitPerimeter=0;" edge="1" parent="1" source="O3C06PD_wvDqqxQJmVaV-8" target="O3C06PD_wvDqqxQJmVaV-10">
          <mxGeometry width="50" height="50" relative="1" as="geometry">
            <mxPoint x="199.7" y="798" as="sourcePoint" />
            <mxPoint x="199.95" y="825" as="targetPoint" />
          </mxGeometry>
        </mxCell>
      </root>
    </mxGraphModel>
  </diagram>
</mxfile>
